<?xml version="1.0" encoding="utf-8" standalone="no"?>
<!DOCTYPE svg PUBLIC "-//W3C//DTD SVG 1.1//EN"
  "http://www.w3.org/Graphics/SVG/1.1/DTD/svg11.dtd">
<!-- Created with matplotlib (https://matplotlib.org/) -->
<svg height="345.6pt" version="1.1" viewBox="0 0 460.8 345.6" width="460.8pt" xmlns="http://www.w3.org/2000/svg" xmlns:xlink="http://www.w3.org/1999/xlink">
 <metadata>
  <rdf:RDF xmlns:cc="http://creativecommons.org/ns#" xmlns:dc="http://purl.org/dc/elements/1.1/" xmlns:rdf="http://www.w3.org/1999/02/22-rdf-syntax-ns#">
   <cc:Work>
    <dc:type rdf:resource="http://purl.org/dc/dcmitype/StillImage"/>
    <dc:date>2023-06-26T20:35:30.093951</dc:date>
    <dc:format>image/svg+xml</dc:format>
    <dc:creator>
     <cc:Agent>
      <dc:title>Matplotlib v3.3.4, https://matplotlib.org/</dc:title>
     </cc:Agent>
    </dc:creator>
   </cc:Work>
  </rdf:RDF>
 </metadata>
 <defs>
  <style type="text/css">*{stroke-linecap:butt;stroke-linejoin:round;}</style>
 </defs>
 <g id="figure_1">
  <g id="patch_1">
   <path d="M 0 345.6 
L 460.8 345.6 
L 460.8 0 
L 0 0 
z
" style="fill:#ffffff;"/>
  </g>
  <g id="axes_1">
   <g id="patch_2">
    <path d="M 57.6 307.584 
L 414.72 307.584 
L 414.72 41.472 
L 57.6 41.472 
z
" style="fill:#ffffff;"/>
   </g>
   <g id="LineCollection_1">
    <path clip-path="url(#p5299033b19)" d="M 204.34483 144.422546 
L 236.387554 168.270562 
" style="fill:none;stroke:#000000;"/>
    <path clip-path="url(#p5299033b19)" d="M 204.34483 144.422546 
L 196.989371 169.81754 
" style="fill:none;stroke:#000000;"/>
    <path clip-path="url(#p5299033b19)" d="M 204.34483 144.422546 
L 209.665162 111.567364 
" style="fill:none;stroke:#000000;"/>
    <path clip-path="url(#p5299033b19)" d="M 204.34483 144.422546 
L 164.306894 133.148913 
" style="fill:none;stroke:#000000;"/>
    <path clip-path="url(#p5299033b19)" d="M 236.387554 168.270562 
L 196.989371 169.81754 
" style="fill:none;stroke:#000000;"/>
    <path clip-path="url(#p5299033b19)" d="M 236.387554 168.270562 
L 275.311596 183.999772 
" style="fill:none;stroke:#000000;"/>
    <path clip-path="url(#p5299033b19)" d="M 236.387554 168.270562 
L 251.36044 198.860202 
" style="fill:none;stroke:#000000;"/>
    <path clip-path="url(#p5299033b19)" d="M 236.387554 168.270562 
L 261.883024 145.654332 
" style="fill:none;stroke:#000000;"/>
    <path clip-path="url(#p5299033b19)" d="M 196.989371 169.81754 
L 157.594402 185.36518 
" style="fill:none;stroke:#000000;"/>
    <path clip-path="url(#p5299033b19)" d="M 209.665162 111.567364 
L 230.839158 83.518217 
" style="fill:none;stroke:#000000;"/>
    <path clip-path="url(#p5299033b19)" d="M 209.665162 111.567364 
L 189.931972 84.269357 
" style="fill:none;stroke:#000000;"/>
    <path clip-path="url(#p5299033b19)" d="M 164.306894 133.148913 
L 141.954191 106.853365 
" style="fill:none;stroke:#000000;"/>
    <path clip-path="url(#p5299033b19)" d="M 164.306894 133.148913 
L 122.537473 134.150179 
" style="fill:none;stroke:#000000;"/>
    <path clip-path="url(#p5299033b19)" d="M 275.311596 183.999772 
L 251.36044 198.860202 
" style="fill:none;stroke:#000000;"/>
    <path clip-path="url(#p5299033b19)" d="M 275.311596 183.999772 
L 288.805558 212.442149 
" style="fill:none;stroke:#000000;"/>
    <path clip-path="url(#p5299033b19)" d="M 275.311596 183.999772 
L 317.419902 174.390272 
" style="fill:none;stroke:#000000;"/>
    <path clip-path="url(#p5299033b19)" d="M 251.36044 198.860202 
L 288.805558 212.442149 
" style="fill:none;stroke:#000000;"/>
    <path clip-path="url(#p5299033b19)" d="M 251.36044 198.860202 
L 234.493249 227.620597 
" style="fill:none;stroke:#000000;"/>
    <path clip-path="url(#p5299033b19)" d="M 261.883024 145.654332 
L 296.245879 123.119061 
" style="fill:none;stroke:#000000;"/>
    <path clip-path="url(#p5299033b19)" d="M 261.883024 145.654332 
L 265.82828 120.132411 
" style="fill:none;stroke:#000000;"/>
    <path clip-path="url(#p5299033b19)" d="M 157.594402 185.36518 
L 115.300145 182.790798 
" style="fill:none;stroke:#000000;"/>
    <path clip-path="url(#p5299033b19)" d="M 157.594402 185.36518 
L 133.714274 210.869693 
" style="fill:none;stroke:#000000;"/>
    <path clip-path="url(#p5299033b19)" d="M 288.805558 212.442149 
L 318.905586 236.804346 
" style="fill:none;stroke:#000000;"/>
    <path clip-path="url(#p5299033b19)" d="M 317.419902 174.390272 
L 356.875233 182.384906 
" style="fill:none;stroke:#000000;"/>
    <path clip-path="url(#p5299033b19)" d="M 317.419902 174.390272 
L 348.955373 152.880209 
" style="fill:none;stroke:#000000;"/>
    <path clip-path="url(#p5299033b19)" d="M 234.493249 227.620597 
L 204.090284 248.408693 
" style="fill:none;stroke:#000000;"/>
    <path clip-path="url(#p5299033b19)" d="M 234.493249 227.620597 
L 242.47583 257.287558 
" style="fill:none;stroke:#000000;"/>
    <path clip-path="url(#p5299033b19)" d="M 318.905586 236.804346 
L 323.376662 267.641937 
" style="fill:none;stroke:#000000;"/>
    <path clip-path="url(#p5299033b19)" d="M 318.905586 236.804346 
L 360.194588 243.222725 
" style="fill:none;stroke:#000000;"/>
    <path clip-path="url(#p5299033b19)" d="M 230.839158 83.518217 
L 241.862833 53.568 
" style="fill:none;stroke:#000000;"/>
    <path clip-path="url(#p5299033b19)" d="M 189.931972 84.269357 
L 178.365566 54.648386 
" style="fill:none;stroke:#000000;"/>
    <path clip-path="url(#p5299033b19)" d="M 141.954191 106.853365 
L 113.044465 84.602 
" style="fill:none;stroke:#000000;"/>
    <path clip-path="url(#p5299033b19)" d="M 122.537473 134.150179 
L 82.085901 126.200841 
" style="fill:none;stroke:#000000;"/>
    <path clip-path="url(#p5299033b19)" d="M 296.245879 123.119061 
L 320.663871 96.952498 
" style="fill:none;stroke:#000000;"/>
    <path clip-path="url(#p5299033b19)" d="M 115.300145 182.790798 
L 73.832727 187.639178 
" style="fill:none;stroke:#000000;"/>
    <path clip-path="url(#p5299033b19)" d="M 133.714274 210.869693 
L 100.507826 229.764006 
" style="fill:none;stroke:#000000;"/>
    <path clip-path="url(#p5299033b19)" d="M 204.090284 248.408693 
L 183.366483 275.379887 
" style="fill:none;stroke:#000000;"/>
    <path clip-path="url(#p5299033b19)" d="M 242.47583 257.287558 
L 238.325824 287.902512 
" style="fill:none;stroke:#000000;"/>
    <path clip-path="url(#p5299033b19)" d="M 323.376662 267.641937 
L 337.387917 295.488 
" style="fill:none;stroke:#000000;"/>
    <path clip-path="url(#p5299033b19)" d="M 360.194588 243.222725 
L 396.479519 256.192977 
" style="fill:none;stroke:#000000;"/>
    <path clip-path="url(#p5299033b19)" d="M 356.875233 182.384906 
L 398.487273 181.109799 
" style="fill:none;stroke:#000000;"/>
    <path clip-path="url(#p5299033b19)" d="M 348.955373 152.880209 
L 385.725381 137.582844 
" style="fill:none;stroke:#000000;"/>
   </g>
   <g id="matplotlib.axis_1">
    <g id="xtick_1"/>
    <g id="xtick_2"/>
    <g id="xtick_3"/>
    <g id="xtick_4"/>
    <g id="xtick_5"/>
    <g id="xtick_6"/>
    <g id="xtick_7"/>
    <g id="xtick_8"/>
    <g id="xtick_9"/>
   </g>
   <g id="matplotlib.axis_2">
    <g id="ytick_1"/>
    <g id="ytick_2"/>
    <g id="ytick_3"/>
    <g id="ytick_4"/>
    <g id="ytick_5"/>
    <g id="ytick_6"/>
    <g id="ytick_7"/>
    <g id="ytick_8"/>
    <g id="ytick_9"/>
   </g>
   <g id="PathCollection_1">
    <defs>
     <path d="M 0 11.18034 
C 2.965061 11.18034 5.80908 10.002309 7.905694 7.905694 
C 10.002309 5.80908 11.18034 2.965061 11.18034 0 
C 11.18034 -2.965061 10.002309 -5.80908 7.905694 -7.905694 
C 5.80908 -10.002309 2.965061 -11.18034 0 -11.18034 
C -2.965061 -11.18034 -5.80908 -10.002309 -7.905694 -7.905694 
C -10.002309 -5.80908 -11.18034 -2.965061 -11.18034 0 
C -11.18034 2.965061 -10.002309 5.80908 -7.905694 7.905694 
C -5.80908 10.002309 -2.965061 11.18034 0 11.18034 
z
" id="md5f4cd759a" style="stroke:#1f78b4;"/>
    </defs>
    <g clip-path="url(#p5299033b19)">
     <use style="fill:#1f78b4;stroke:#1f78b4;" x="209.665162" xlink:href="#md5f4cd759a" y="111.567364"/>
     <use style="fill:#1f78b4;stroke:#1f78b4;" x="230.839158" xlink:href="#md5f4cd759a" y="83.518217"/>
     <use style="fill:#1f78b4;stroke:#1f78b4;" x="189.931972" xlink:href="#md5f4cd759a" y="84.269357"/>
     <use style="fill:#1f78b4;stroke:#1f78b4;" x="164.306894" xlink:href="#md5f4cd759a" y="133.148913"/>
     <use style="fill:#1f78b4;stroke:#1f78b4;" x="141.954191" xlink:href="#md5f4cd759a" y="106.853365"/>
     <use style="fill:#1f78b4;stroke:#1f78b4;" x="122.537473" xlink:href="#md5f4cd759a" y="134.150179"/>
     <use style="fill:#1f78b4;stroke:#1f78b4;" x="261.883024" xlink:href="#md5f4cd759a" y="145.654332"/>
     <use style="fill:#1f78b4;stroke:#1f78b4;" x="296.245879" xlink:href="#md5f4cd759a" y="123.119061"/>
     <use style="fill:#1f78b4;stroke:#1f78b4;" x="157.594402" xlink:href="#md5f4cd759a" y="185.36518"/>
     <use style="fill:#1f78b4;stroke:#1f78b4;" x="115.300145" xlink:href="#md5f4cd759a" y="182.790798"/>
     <use style="fill:#1f78b4;stroke:#1f78b4;" x="133.714274" xlink:href="#md5f4cd759a" y="210.869693"/>
     <use style="fill:#1f78b4;stroke:#1f78b4;" x="234.493249" xlink:href="#md5f4cd759a" y="227.620597"/>
     <use style="fill:#1f78b4;stroke:#1f78b4;" x="204.090284" xlink:href="#md5f4cd759a" y="248.408693"/>
     <use style="fill:#1f78b4;stroke:#1f78b4;" x="242.47583" xlink:href="#md5f4cd759a" y="257.287558"/>
     <use style="fill:#1f78b4;stroke:#1f78b4;" x="318.905586" xlink:href="#md5f4cd759a" y="236.804346"/>
     <use style="fill:#1f78b4;stroke:#1f78b4;" x="323.376662" xlink:href="#md5f4cd759a" y="267.641937"/>
     <use style="fill:#1f78b4;stroke:#1f78b4;" x="360.194588" xlink:href="#md5f4cd759a" y="243.222725"/>
     <use style="fill:#1f78b4;stroke:#1f78b4;" x="317.419902" xlink:href="#md5f4cd759a" y="174.390272"/>
     <use style="fill:#1f78b4;stroke:#1f78b4;" x="356.875233" xlink:href="#md5f4cd759a" y="182.384906"/>
     <use style="fill:#1f78b4;stroke:#1f78b4;" x="348.955373" xlink:href="#md5f4cd759a" y="152.880209"/>
    </g>
   </g>
   <g id="PathCollection_2">
    <defs>
     <path d="M 0 11.18034 
C 2.965061 11.18034 5.80908 10.002309 7.905694 7.905694 
C 10.002309 5.80908 11.18034 2.965061 11.18034 0 
C 11.18034 -2.965061 10.002309 -5.80908 7.905694 -7.905694 
C 5.80908 -10.002309 2.965061 -11.18034 0 -11.18034 
C -2.965061 -11.18034 -5.80908 -10.002309 -7.905694 -7.905694 
C -10.002309 -5.80908 -11.18034 -2.965061 -11.18034 0 
C -11.18034 2.965061 -10.002309 5.80908 -7.905694 7.905694 
C -5.80908 10.002309 -2.965061 11.18034 0 11.18034 
z
" id="m08a76a968f" style="stroke:#ff0000;"/>
    </defs>
    <g clip-path="url(#p5299033b19)">
     <use style="fill:#ff0000;stroke:#ff0000;" x="204.34483" xlink:href="#m08a76a968f" y="144.422546"/>
     <use style="fill:#ff0000;stroke:#ff0000;" x="236.387554" xlink:href="#m08a76a968f" y="168.270562"/>
     <use style="fill:#ff0000;stroke:#ff0000;" x="196.989371" xlink:href="#m08a76a968f" y="169.81754"/>
     <use style="fill:#ff0000;stroke:#ff0000;" x="275.311596" xlink:href="#m08a76a968f" y="183.999772"/>
     <use style="fill:#ff0000;stroke:#ff0000;" x="251.36044" xlink:href="#m08a76a968f" y="198.860202"/>
     <use style="fill:#ff0000;stroke:#ff0000;" x="288.805558" xlink:href="#m08a76a968f" y="212.442149"/>
    </g>
   </g>
   <g id="PathCollection_3">
    <defs>
     <path d="M -10 10 
L 10 10 
L 10 -10 
L -10 -10 
z
" id="m2c53ebcecd" style="stroke:#fa709a;"/>
    </defs>
    <g clip-path="url(#p5299033b19)">
     <use style="fill:#fa709a;stroke:#fa709a;" x="241.862833" xlink:href="#m2c53ebcecd" y="53.568"/>
     <use style="fill:#fa709a;stroke:#fa709a;" x="178.365566" xlink:href="#m2c53ebcecd" y="54.648386"/>
     <use style="fill:#fa709a;stroke:#fa709a;" x="113.044465" xlink:href="#m2c53ebcecd" y="84.602"/>
     <use style="fill:#fa709a;stroke:#fa709a;" x="82.085901" xlink:href="#m2c53ebcecd" y="126.200841"/>
     <use style="fill:#fa709a;stroke:#fa709a;" x="265.82828" xlink:href="#m2c53ebcecd" y="120.132411"/>
     <use style="fill:#fa709a;stroke:#fa709a;" x="320.663871" xlink:href="#m2c53ebcecd" y="96.952498"/>
     <use style="fill:#fa709a;stroke:#fa709a;" x="73.832727" xlink:href="#m2c53ebcecd" y="187.639178"/>
     <use style="fill:#fa709a;stroke:#fa709a;" x="100.507826" xlink:href="#m2c53ebcecd" y="229.764006"/>
     <use style="fill:#fa709a;stroke:#fa709a;" x="183.366483" xlink:href="#m2c53ebcecd" y="275.379887"/>
     <use style="fill:#fa709a;stroke:#fa709a;" x="238.325824" xlink:href="#m2c53ebcecd" y="287.902512"/>
     <use style="fill:#fa709a;stroke:#fa709a;" x="337.387917" xlink:href="#m2c53ebcecd" y="295.488"/>
     <use style="fill:#fa709a;stroke:#fa709a;" x="396.479519" xlink:href="#m2c53ebcecd" y="256.192977"/>
     <use style="fill:#fa709a;stroke:#fa709a;" x="398.487273" xlink:href="#m2c53ebcecd" y="181.109799"/>
     <use style="fill:#fa709a;stroke:#fa709a;" x="385.725381" xlink:href="#m2c53ebcecd" y="137.582844"/>
    </g>
   </g>
   <g id="patch_3">
    <path d="M 57.6 307.584 
L 57.6 41.472 
" style="fill:none;stroke:#000000;stroke-linecap:square;stroke-linejoin:miter;stroke-width:0.8;"/>
   </g>
   <g id="patch_4">
    <path d="M 414.72 307.584 
L 414.72 41.472 
" style="fill:none;stroke:#000000;stroke-linecap:square;stroke-linejoin:miter;stroke-width:0.8;"/>
   </g>
   <g id="patch_5">
    <path d="M 57.6 307.584 
L 414.72 307.584 
" style="fill:none;stroke:#000000;stroke-linecap:square;stroke-linejoin:miter;stroke-width:0.8;"/>
   </g>
   <g id="patch_6">
    <path d="M 57.6 41.472 
L 414.72 41.472 
" style="fill:none;stroke:#000000;stroke-linecap:square;stroke-linejoin:miter;stroke-width:0.8;"/>
   </g>
   <g id="text_1">
    <g clip-path="url(#p5299033b19)">
     <!-- s0 -->
     <g style="fill:#ffffff;" transform="translate(197.401705 147.733796)scale(0.12 -0.12)">
      <defs>
       <path d="M 44.28125 53.078125 
L 44.28125 44.578125 
Q 40.484375 46.53125 36.375 47.5 
Q 32.28125 48.484375 27.875 48.484375 
Q 21.1875 48.484375 17.84375 46.4375 
Q 14.5 44.390625 14.5 40.28125 
Q 14.5 37.15625 16.890625 35.375 
Q 19.28125 33.59375 26.515625 31.984375 
L 29.59375 31.296875 
Q 39.15625 29.25 43.1875 25.515625 
Q 47.21875 21.78125 47.21875 15.09375 
Q 47.21875 7.46875 41.1875 3.015625 
Q 35.15625 -1.421875 24.609375 -1.421875 
Q 20.21875 -1.421875 15.453125 -0.5625 
Q 10.6875 0.296875 5.421875 2 
L 5.421875 11.28125 
Q 10.40625 8.6875 15.234375 7.390625 
Q 20.0625 6.109375 24.8125 6.109375 
Q 31.15625 6.109375 34.5625 8.28125 
Q 37.984375 10.453125 37.984375 14.40625 
Q 37.984375 18.0625 35.515625 20.015625 
Q 33.0625 21.96875 24.703125 23.78125 
L 21.578125 24.515625 
Q 13.234375 26.265625 9.515625 29.90625 
Q 5.8125 33.546875 5.8125 39.890625 
Q 5.8125 47.609375 11.28125 51.796875 
Q 16.75 56 26.8125 56 
Q 31.78125 56 36.171875 55.265625 
Q 40.578125 54.546875 44.28125 53.078125 
z
" id="DejaVuSans-115"/>
       <path d="M 31.78125 66.40625 
Q 24.171875 66.40625 20.328125 58.90625 
Q 16.5 51.421875 16.5 36.375 
Q 16.5 21.390625 20.328125 13.890625 
Q 24.171875 6.390625 31.78125 6.390625 
Q 39.453125 6.390625 43.28125 13.890625 
Q 47.125 21.390625 47.125 36.375 
Q 47.125 51.421875 43.28125 58.90625 
Q 39.453125 66.40625 31.78125 66.40625 
z
M 31.78125 74.21875 
Q 44.046875 74.21875 50.515625 64.515625 
Q 56.984375 54.828125 56.984375 36.375 
Q 56.984375 17.96875 50.515625 8.265625 
Q 44.046875 -1.421875 31.78125 -1.421875 
Q 19.53125 -1.421875 13.0625 8.265625 
Q 6.59375 17.96875 6.59375 36.375 
Q 6.59375 54.828125 13.0625 64.515625 
Q 19.53125 74.21875 31.78125 74.21875 
z
" id="DejaVuSans-48"/>
      </defs>
      <use xlink:href="#DejaVuSans-115"/>
      <use x="52.099609" xlink:href="#DejaVuSans-48"/>
     </g>
    </g>
   </g>
   <g id="text_2">
    <g clip-path="url(#p5299033b19)">
     <!-- s1 -->
     <g style="fill:#ffffff;" transform="translate(229.444429 171.581812)scale(0.12 -0.12)">
      <defs>
       <path d="M 12.40625 8.296875 
L 28.515625 8.296875 
L 28.515625 63.921875 
L 10.984375 60.40625 
L 10.984375 69.390625 
L 28.421875 72.90625 
L 38.28125 72.90625 
L 38.28125 8.296875 
L 54.390625 8.296875 
L 54.390625 0 
L 12.40625 0 
z
" id="DejaVuSans-49"/>
      </defs>
      <use xlink:href="#DejaVuSans-115"/>
      <use x="52.099609" xlink:href="#DejaVuSans-49"/>
     </g>
    </g>
   </g>
   <g id="text_3">
    <g clip-path="url(#p5299033b19)">
     <!-- s2 -->
     <g style="fill:#ffffff;" transform="translate(190.046246 173.12879)scale(0.12 -0.12)">
      <defs>
       <path d="M 19.1875 8.296875 
L 53.609375 8.296875 
L 53.609375 0 
L 7.328125 0 
L 7.328125 8.296875 
Q 12.9375 14.109375 22.625 23.890625 
Q 32.328125 33.6875 34.8125 36.53125 
Q 39.546875 41.84375 41.421875 45.53125 
Q 43.3125 49.21875 43.3125 52.78125 
Q 43.3125 58.59375 39.234375 62.25 
Q 35.15625 65.921875 28.609375 65.921875 
Q 23.96875 65.921875 18.8125 64.3125 
Q 13.671875 62.703125 7.8125 59.421875 
L 7.8125 69.390625 
Q 13.765625 71.78125 18.9375 73 
Q 24.125 74.21875 28.421875 74.21875 
Q 39.75 74.21875 46.484375 68.546875 
Q 53.21875 62.890625 53.21875 53.421875 
Q 53.21875 48.921875 51.53125 44.890625 
Q 49.859375 40.875 45.40625 35.40625 
Q 44.1875 33.984375 37.640625 27.21875 
Q 31.109375 20.453125 19.1875 8.296875 
z
" id="DejaVuSans-50"/>
      </defs>
      <use xlink:href="#DejaVuSans-115"/>
      <use x="52.099609" xlink:href="#DejaVuSans-50"/>
     </g>
    </g>
   </g>
   <g id="text_4">
    <g clip-path="url(#p5299033b19)">
     <!-- s3 -->
     <g style="fill:#ffffff;" transform="translate(268.368471 187.311022)scale(0.12 -0.12)">
      <defs>
       <path d="M 40.578125 39.3125 
Q 47.65625 37.796875 51.625 33 
Q 55.609375 28.21875 55.609375 21.1875 
Q 55.609375 10.40625 48.1875 4.484375 
Q 40.765625 -1.421875 27.09375 -1.421875 
Q 22.515625 -1.421875 17.65625 -0.515625 
Q 12.796875 0.390625 7.625 2.203125 
L 7.625 11.71875 
Q 11.71875 9.328125 16.59375 8.109375 
Q 21.484375 6.890625 26.8125 6.890625 
Q 36.078125 6.890625 40.9375 10.546875 
Q 45.796875 14.203125 45.796875 21.1875 
Q 45.796875 27.640625 41.28125 31.265625 
Q 36.765625 34.90625 28.71875 34.90625 
L 20.21875 34.90625 
L 20.21875 43.015625 
L 29.109375 43.015625 
Q 36.375 43.015625 40.234375 45.921875 
Q 44.09375 48.828125 44.09375 54.296875 
Q 44.09375 59.90625 40.109375 62.90625 
Q 36.140625 65.921875 28.71875 65.921875 
Q 24.65625 65.921875 20.015625 65.03125 
Q 15.375 64.15625 9.8125 62.3125 
L 9.8125 71.09375 
Q 15.4375 72.65625 20.34375 73.4375 
Q 25.25 74.21875 29.59375 74.21875 
Q 40.828125 74.21875 47.359375 69.109375 
Q 53.90625 64.015625 53.90625 55.328125 
Q 53.90625 49.265625 50.4375 45.09375 
Q 46.96875 40.921875 40.578125 39.3125 
z
" id="DejaVuSans-51"/>
      </defs>
      <use xlink:href="#DejaVuSans-115"/>
      <use x="52.099609" xlink:href="#DejaVuSans-51"/>
     </g>
    </g>
   </g>
   <g id="text_5">
    <g clip-path="url(#p5299033b19)">
     <!-- s4 -->
     <g style="fill:#ffffff;" transform="translate(244.417315 202.171452)scale(0.12 -0.12)">
      <defs>
       <path d="M 37.796875 64.3125 
L 12.890625 25.390625 
L 37.796875 25.390625 
z
M 35.203125 72.90625 
L 47.609375 72.90625 
L 47.609375 25.390625 
L 58.015625 25.390625 
L 58.015625 17.1875 
L 47.609375 17.1875 
L 47.609375 0 
L 37.796875 0 
L 37.796875 17.1875 
L 4.890625 17.1875 
L 4.890625 26.703125 
z
" id="DejaVuSans-52"/>
      </defs>
      <use xlink:href="#DejaVuSans-115"/>
      <use x="52.099609" xlink:href="#DejaVuSans-52"/>
     </g>
    </g>
   </g>
   <g id="text_6">
    <g clip-path="url(#p5299033b19)">
     <!-- s5 -->
     <g style="fill:#ffffff;" transform="translate(281.862433 215.753399)scale(0.12 -0.12)">
      <defs>
       <path d="M 10.796875 72.90625 
L 49.515625 72.90625 
L 49.515625 64.59375 
L 19.828125 64.59375 
L 19.828125 46.734375 
Q 21.96875 47.46875 24.109375 47.828125 
Q 26.265625 48.1875 28.421875 48.1875 
Q 40.625 48.1875 47.75 41.5 
Q 54.890625 34.8125 54.890625 23.390625 
Q 54.890625 11.625 47.5625 5.09375 
Q 40.234375 -1.421875 26.90625 -1.421875 
Q 22.3125 -1.421875 17.546875 -0.640625 
Q 12.796875 0.140625 7.71875 1.703125 
L 7.71875 11.625 
Q 12.109375 9.234375 16.796875 8.0625 
Q 21.484375 6.890625 26.703125 6.890625 
Q 35.15625 6.890625 40.078125 11.328125 
Q 45.015625 15.765625 45.015625 23.390625 
Q 45.015625 31 40.078125 35.4375 
Q 35.15625 39.890625 26.703125 39.890625 
Q 22.75 39.890625 18.8125 39.015625 
Q 14.890625 38.140625 10.796875 36.28125 
z
" id="DejaVuSans-53"/>
      </defs>
      <use xlink:href="#DejaVuSans-115"/>
      <use x="52.099609" xlink:href="#DejaVuSans-53"/>
     </g>
    </g>
   </g>
   <g id="text_7">
    <g clip-path="url(#p5299033b19)">
     <!-- s6 -->
     <g style="fill:#ffffff;" transform="translate(202.722037 114.878614)scale(0.12 -0.12)">
      <defs>
       <path d="M 33.015625 40.375 
Q 26.375 40.375 22.484375 35.828125 
Q 18.609375 31.296875 18.609375 23.390625 
Q 18.609375 15.53125 22.484375 10.953125 
Q 26.375 6.390625 33.015625 6.390625 
Q 39.65625 6.390625 43.53125 10.953125 
Q 47.40625 15.53125 47.40625 23.390625 
Q 47.40625 31.296875 43.53125 35.828125 
Q 39.65625 40.375 33.015625 40.375 
z
M 52.59375 71.296875 
L 52.59375 62.3125 
Q 48.875 64.0625 45.09375 64.984375 
Q 41.3125 65.921875 37.59375 65.921875 
Q 27.828125 65.921875 22.671875 59.328125 
Q 17.53125 52.734375 16.796875 39.40625 
Q 19.671875 43.65625 24.015625 45.921875 
Q 28.375 48.1875 33.59375 48.1875 
Q 44.578125 48.1875 50.953125 41.515625 
Q 57.328125 34.859375 57.328125 23.390625 
Q 57.328125 12.15625 50.6875 5.359375 
Q 44.046875 -1.421875 33.015625 -1.421875 
Q 20.359375 -1.421875 13.671875 8.265625 
Q 6.984375 17.96875 6.984375 36.375 
Q 6.984375 53.65625 15.1875 63.9375 
Q 23.390625 74.21875 37.203125 74.21875 
Q 40.921875 74.21875 44.703125 73.484375 
Q 48.484375 72.75 52.59375 71.296875 
z
" id="DejaVuSans-54"/>
      </defs>
      <use xlink:href="#DejaVuSans-115"/>
      <use x="52.099609" xlink:href="#DejaVuSans-54"/>
     </g>
    </g>
   </g>
   <g id="text_8">
    <g clip-path="url(#p5299033b19)">
     <!-- s7 -->
     <g style="fill:#ffffff;" transform="translate(223.896033 86.829467)scale(0.12 -0.12)">
      <defs>
       <path d="M 8.203125 72.90625 
L 55.078125 72.90625 
L 55.078125 68.703125 
L 28.609375 0 
L 18.3125 0 
L 43.21875 64.59375 
L 8.203125 64.59375 
z
" id="DejaVuSans-55"/>
      </defs>
      <use xlink:href="#DejaVuSans-115"/>
      <use x="52.099609" xlink:href="#DejaVuSans-55"/>
     </g>
    </g>
   </g>
   <g id="text_9">
    <g clip-path="url(#p5299033b19)">
     <!-- s8 -->
     <g style="fill:#ffffff;" transform="translate(182.988847 87.580607)scale(0.12 -0.12)">
      <defs>
       <path d="M 31.78125 34.625 
Q 24.75 34.625 20.71875 30.859375 
Q 16.703125 27.09375 16.703125 20.515625 
Q 16.703125 13.921875 20.71875 10.15625 
Q 24.75 6.390625 31.78125 6.390625 
Q 38.8125 6.390625 42.859375 10.171875 
Q 46.921875 13.96875 46.921875 20.515625 
Q 46.921875 27.09375 42.890625 30.859375 
Q 38.875 34.625 31.78125 34.625 
z
M 21.921875 38.8125 
Q 15.578125 40.375 12.03125 44.71875 
Q 8.5 49.078125 8.5 55.328125 
Q 8.5 64.0625 14.71875 69.140625 
Q 20.953125 74.21875 31.78125 74.21875 
Q 42.671875 74.21875 48.875 69.140625 
Q 55.078125 64.0625 55.078125 55.328125 
Q 55.078125 49.078125 51.53125 44.71875 
Q 48 40.375 41.703125 38.8125 
Q 48.828125 37.15625 52.796875 32.3125 
Q 56.78125 27.484375 56.78125 20.515625 
Q 56.78125 9.90625 50.3125 4.234375 
Q 43.84375 -1.421875 31.78125 -1.421875 
Q 19.734375 -1.421875 13.25 4.234375 
Q 6.78125 9.90625 6.78125 20.515625 
Q 6.78125 27.484375 10.78125 32.3125 
Q 14.796875 37.15625 21.921875 38.8125 
z
M 18.3125 54.390625 
Q 18.3125 48.734375 21.84375 45.5625 
Q 25.390625 42.390625 31.78125 42.390625 
Q 38.140625 42.390625 41.71875 45.5625 
Q 45.3125 48.734375 45.3125 54.390625 
Q 45.3125 60.0625 41.71875 63.234375 
Q 38.140625 66.40625 31.78125 66.40625 
Q 25.390625 66.40625 21.84375 63.234375 
Q 18.3125 60.0625 18.3125 54.390625 
z
" id="DejaVuSans-56"/>
      </defs>
      <use xlink:href="#DejaVuSans-115"/>
      <use x="52.099609" xlink:href="#DejaVuSans-56"/>
     </g>
    </g>
   </g>
   <g id="text_10">
    <g clip-path="url(#p5299033b19)">
     <!-- s9 -->
     <g style="fill:#ffffff;" transform="translate(157.363769 136.460163)scale(0.12 -0.12)">
      <defs>
       <path d="M 10.984375 1.515625 
L 10.984375 10.5 
Q 14.703125 8.734375 18.5 7.8125 
Q 22.3125 6.890625 25.984375 6.890625 
Q 35.75 6.890625 40.890625 13.453125 
Q 46.046875 20.015625 46.78125 33.40625 
Q 43.953125 29.203125 39.59375 26.953125 
Q 35.25 24.703125 29.984375 24.703125 
Q 19.046875 24.703125 12.671875 31.3125 
Q 6.296875 37.9375 6.296875 49.421875 
Q 6.296875 60.640625 12.9375 67.421875 
Q 19.578125 74.21875 30.609375 74.21875 
Q 43.265625 74.21875 49.921875 64.515625 
Q 56.59375 54.828125 56.59375 36.375 
Q 56.59375 19.140625 48.40625 8.859375 
Q 40.234375 -1.421875 26.421875 -1.421875 
Q 22.703125 -1.421875 18.890625 -0.6875 
Q 15.09375 0.046875 10.984375 1.515625 
z
M 30.609375 32.421875 
Q 37.25 32.421875 41.125 36.953125 
Q 45.015625 41.5 45.015625 49.421875 
Q 45.015625 57.28125 41.125 61.84375 
Q 37.25 66.40625 30.609375 66.40625 
Q 23.96875 66.40625 20.09375 61.84375 
Q 16.21875 57.28125 16.21875 49.421875 
Q 16.21875 41.5 20.09375 36.953125 
Q 23.96875 32.421875 30.609375 32.421875 
z
" id="DejaVuSans-57"/>
      </defs>
      <use xlink:href="#DejaVuSans-115"/>
      <use x="52.099609" xlink:href="#DejaVuSans-57"/>
     </g>
    </g>
   </g>
   <g id="text_11">
    <g clip-path="url(#p5299033b19)">
     <!-- s10 -->
     <g style="fill:#ffffff;" transform="translate(131.193566 110.164615)scale(0.12 -0.12)">
      <use xlink:href="#DejaVuSans-115"/>
      <use x="52.099609" xlink:href="#DejaVuSans-49"/>
      <use x="115.722656" xlink:href="#DejaVuSans-48"/>
     </g>
    </g>
   </g>
   <g id="text_12">
    <g clip-path="url(#p5299033b19)">
     <!-- s11 -->
     <g style="fill:#ffffff;" transform="translate(111.776848 137.461429)scale(0.12 -0.12)">
      <use xlink:href="#DejaVuSans-115"/>
      <use x="52.099609" xlink:href="#DejaVuSans-49"/>
      <use x="115.722656" xlink:href="#DejaVuSans-49"/>
     </g>
    </g>
   </g>
   <g id="text_13">
    <g clip-path="url(#p5299033b19)">
     <!-- s12 -->
     <g style="fill:#ffffff;" transform="translate(251.122399 148.965582)scale(0.12 -0.12)">
      <use xlink:href="#DejaVuSans-115"/>
      <use x="52.099609" xlink:href="#DejaVuSans-49"/>
      <use x="115.722656" xlink:href="#DejaVuSans-50"/>
     </g>
    </g>
   </g>
   <g id="text_14">
    <g clip-path="url(#p5299033b19)">
     <!-- s13 -->
     <g style="fill:#ffffff;" transform="translate(285.485254 126.430311)scale(0.12 -0.12)">
      <use xlink:href="#DejaVuSans-115"/>
      <use x="52.099609" xlink:href="#DejaVuSans-49"/>
      <use x="115.722656" xlink:href="#DejaVuSans-51"/>
     </g>
    </g>
   </g>
   <g id="text_15">
    <g clip-path="url(#p5299033b19)">
     <!-- s14 -->
     <g style="fill:#ffffff;" transform="translate(146.833777 188.67643)scale(0.12 -0.12)">
      <use xlink:href="#DejaVuSans-115"/>
      <use x="52.099609" xlink:href="#DejaVuSans-49"/>
      <use x="115.722656" xlink:href="#DejaVuSans-52"/>
     </g>
    </g>
   </g>
   <g id="text_16">
    <g clip-path="url(#p5299033b19)">
     <!-- s15 -->
     <g style="fill:#ffffff;" transform="translate(104.53952 186.102048)scale(0.12 -0.12)">
      <use xlink:href="#DejaVuSans-115"/>
      <use x="52.099609" xlink:href="#DejaVuSans-49"/>
      <use x="115.722656" xlink:href="#DejaVuSans-53"/>
     </g>
    </g>
   </g>
   <g id="text_17">
    <g clip-path="url(#p5299033b19)">
     <!-- s16 -->
     <g style="fill:#ffffff;" transform="translate(122.953649 214.180943)scale(0.12 -0.12)">
      <use xlink:href="#DejaVuSans-115"/>
      <use x="52.099609" xlink:href="#DejaVuSans-49"/>
      <use x="115.722656" xlink:href="#DejaVuSans-54"/>
     </g>
    </g>
   </g>
   <g id="text_18">
    <g clip-path="url(#p5299033b19)">
     <!-- s17 -->
     <g style="fill:#ffffff;" transform="translate(223.732624 230.931847)scale(0.12 -0.12)">
      <use xlink:href="#DejaVuSans-115"/>
      <use x="52.099609" xlink:href="#DejaVuSans-49"/>
      <use x="115.722656" xlink:href="#DejaVuSans-55"/>
     </g>
    </g>
   </g>
   <g id="text_19">
    <g clip-path="url(#p5299033b19)">
     <!-- s18 -->
     <g style="fill:#ffffff;" transform="translate(193.329659 251.719943)scale(0.12 -0.12)">
      <use xlink:href="#DejaVuSans-115"/>
      <use x="52.099609" xlink:href="#DejaVuSans-49"/>
      <use x="115.722656" xlink:href="#DejaVuSans-56"/>
     </g>
    </g>
   </g>
   <g id="text_20">
    <g clip-path="url(#p5299033b19)">
     <!-- s19 -->
     <g style="fill:#ffffff;" transform="translate(231.715205 260.598808)scale(0.12 -0.12)">
      <use xlink:href="#DejaVuSans-115"/>
      <use x="52.099609" xlink:href="#DejaVuSans-49"/>
      <use x="115.722656" xlink:href="#DejaVuSans-57"/>
     </g>
    </g>
   </g>
   <g id="text_21">
    <g clip-path="url(#p5299033b19)">
     <!-- s20 -->
     <g style="fill:#ffffff;" transform="translate(308.144961 240.115596)scale(0.12 -0.12)">
      <use xlink:href="#DejaVuSans-115"/>
      <use x="52.099609" xlink:href="#DejaVuSans-50"/>
      <use x="115.722656" xlink:href="#DejaVuSans-48"/>
     </g>
    </g>
   </g>
   <g id="text_22">
    <g clip-path="url(#p5299033b19)">
     <!-- s21 -->
     <g style="fill:#ffffff;" transform="translate(312.616037 270.953187)scale(0.12 -0.12)">
      <use xlink:href="#DejaVuSans-115"/>
      <use x="52.099609" xlink:href="#DejaVuSans-50"/>
      <use x="115.722656" xlink:href="#DejaVuSans-49"/>
     </g>
    </g>
   </g>
   <g id="text_23">
    <g clip-path="url(#p5299033b19)">
     <!-- s22 -->
     <g style="fill:#ffffff;" transform="translate(349.433963 246.533975)scale(0.12 -0.12)">
      <use xlink:href="#DejaVuSans-115"/>
      <use x="52.099609" xlink:href="#DejaVuSans-50"/>
      <use x="115.722656" xlink:href="#DejaVuSans-50"/>
     </g>
    </g>
   </g>
   <g id="text_24">
    <g clip-path="url(#p5299033b19)">
     <!-- s23 -->
     <g style="fill:#ffffff;" transform="translate(306.659277 177.701522)scale(0.12 -0.12)">
      <use xlink:href="#DejaVuSans-115"/>
      <use x="52.099609" xlink:href="#DejaVuSans-50"/>
      <use x="115.722656" xlink:href="#DejaVuSans-51"/>
     </g>
    </g>
   </g>
   <g id="text_25">
    <g clip-path="url(#p5299033b19)">
     <!-- s24 -->
     <g style="fill:#ffffff;" transform="translate(346.114608 185.696156)scale(0.12 -0.12)">
      <use xlink:href="#DejaVuSans-115"/>
      <use x="52.099609" xlink:href="#DejaVuSans-50"/>
      <use x="115.722656" xlink:href="#DejaVuSans-52"/>
     </g>
    </g>
   </g>
   <g id="text_26">
    <g clip-path="url(#p5299033b19)">
     <!-- s25 -->
     <g style="fill:#ffffff;" transform="translate(338.194748 156.191459)scale(0.12 -0.12)">
      <use xlink:href="#DejaVuSans-115"/>
      <use x="52.099609" xlink:href="#DejaVuSans-50"/>
      <use x="115.722656" xlink:href="#DejaVuSans-53"/>
     </g>
    </g>
   </g>
   <g id="text_27">
    <g clip-path="url(#p5299033b19)">
     <!-- h1 -->
     <g style="fill:#ffffff;" transform="translate(234.242833 56.87925)scale(0.12 -0.12)">
      <defs>
       <path d="M 54.890625 33.015625 
L 54.890625 0 
L 45.90625 0 
L 45.90625 32.71875 
Q 45.90625 40.484375 42.875 44.328125 
Q 39.84375 48.1875 33.796875 48.1875 
Q 26.515625 48.1875 22.3125 43.546875 
Q 18.109375 38.921875 18.109375 30.90625 
L 18.109375 0 
L 9.078125 0 
L 9.078125 75.984375 
L 18.109375 75.984375 
L 18.109375 46.1875 
Q 21.34375 51.125 25.703125 53.5625 
Q 30.078125 56 35.796875 56 
Q 45.21875 56 50.046875 50.171875 
Q 54.890625 44.34375 54.890625 33.015625 
z
" id="DejaVuSans-104"/>
      </defs>
      <use xlink:href="#DejaVuSans-104"/>
      <use x="63.378906" xlink:href="#DejaVuSans-49"/>
     </g>
    </g>
   </g>
   <g id="text_28">
    <g clip-path="url(#p5299033b19)">
     <!-- h2 -->
     <g style="fill:#ffffff;" transform="translate(170.745566 57.959636)scale(0.12 -0.12)">
      <use xlink:href="#DejaVuSans-104"/>
      <use x="63.378906" xlink:href="#DejaVuSans-50"/>
     </g>
    </g>
   </g>
   <g id="text_29">
    <g clip-path="url(#p5299033b19)">
     <!-- h3 -->
     <g style="fill:#ffffff;" transform="translate(105.424465 87.91325)scale(0.12 -0.12)">
      <use xlink:href="#DejaVuSans-104"/>
      <use x="63.378906" xlink:href="#DejaVuSans-51"/>
     </g>
    </g>
   </g>
   <g id="text_30">
    <g clip-path="url(#p5299033b19)">
     <!-- h4 -->
     <g style="fill:#ffffff;" transform="translate(74.465901 129.512091)scale(0.12 -0.12)">
      <use xlink:href="#DejaVuSans-104"/>
      <use x="63.378906" xlink:href="#DejaVuSans-52"/>
     </g>
    </g>
   </g>
   <g id="text_31">
    <g clip-path="url(#p5299033b19)">
     <!-- h5 -->
     <g style="fill:#ffffff;" transform="translate(258.20828 123.443661)scale(0.12 -0.12)">
      <use xlink:href="#DejaVuSans-104"/>
      <use x="63.378906" xlink:href="#DejaVuSans-53"/>
     </g>
    </g>
   </g>
   <g id="text_32">
    <g clip-path="url(#p5299033b19)">
     <!-- h6 -->
     <g style="fill:#ffffff;" transform="translate(313.043871 100.263748)scale(0.12 -0.12)">
      <use xlink:href="#DejaVuSans-104"/>
      <use x="63.378906" xlink:href="#DejaVuSans-54"/>
     </g>
    </g>
   </g>
   <g id="text_33">
    <g clip-path="url(#p5299033b19)">
     <!-- h7 -->
     <g style="fill:#ffffff;" transform="translate(66.212727 190.950428)scale(0.12 -0.12)">
      <use xlink:href="#DejaVuSans-104"/>
      <use x="63.378906" xlink:href="#DejaVuSans-55"/>
     </g>
    </g>
   </g>
   <g id="text_34">
    <g clip-path="url(#p5299033b19)">
     <!-- h8 -->
     <g style="fill:#ffffff;" transform="translate(92.887826 233.075256)scale(0.12 -0.12)">
      <use xlink:href="#DejaVuSans-104"/>
      <use x="63.378906" xlink:href="#DejaVuSans-56"/>
     </g>
    </g>
   </g>
   <g id="text_35">
    <g clip-path="url(#p5299033b19)">
     <!-- h9 -->
     <g style="fill:#ffffff;" transform="translate(175.746483 278.691137)scale(0.12 -0.12)">
      <use xlink:href="#DejaVuSans-104"/>
      <use x="63.378906" xlink:href="#DejaVuSans-57"/>
     </g>
    </g>
   </g>
   <g id="text_36">
    <g clip-path="url(#p5299033b19)">
     <!-- h10 -->
     <g style="fill:#ffffff;" transform="translate(226.888324 291.213762)scale(0.12 -0.12)">
      <use xlink:href="#DejaVuSans-104"/>
      <use x="63.378906" xlink:href="#DejaVuSans-49"/>
      <use x="127.001953" xlink:href="#DejaVuSans-48"/>
     </g>
    </g>
   </g>
   <g id="text_37">
    <g clip-path="url(#p5299033b19)">
     <!-- h11 -->
     <g style="fill:#ffffff;" transform="translate(325.950417 298.79925)scale(0.12 -0.12)">
      <use xlink:href="#DejaVuSans-104"/>
      <use x="63.378906" xlink:href="#DejaVuSans-49"/>
      <use x="127.001953" xlink:href="#DejaVuSans-49"/>
     </g>
    </g>
   </g>
   <g id="text_38">
    <g clip-path="url(#p5299033b19)">
     <!-- h12 -->
     <g style="fill:#ffffff;" transform="translate(385.042019 259.504227)scale(0.12 -0.12)">
      <use xlink:href="#DejaVuSans-104"/>
      <use x="63.378906" xlink:href="#DejaVuSans-49"/>
      <use x="127.001953" xlink:href="#DejaVuSans-50"/>
     </g>
    </g>
   </g>
   <g id="text_39">
    <g clip-path="url(#p5299033b19)">
     <!-- h13 -->
     <g style="fill:#ffffff;" transform="translate(387.049773 184.421049)scale(0.12 -0.12)">
      <use xlink:href="#DejaVuSans-104"/>
      <use x="63.378906" xlink:href="#DejaVuSans-49"/>
      <use x="127.001953" xlink:href="#DejaVuSans-51"/>
     </g>
    </g>
   </g>
   <g id="text_40">
    <g clip-path="url(#p5299033b19)">
     <!-- h0 -->
     <g style="fill:#ffffff;" transform="translate(378.105381 140.894094)scale(0.12 -0.12)">
      <use xlink:href="#DejaVuSans-104"/>
      <use x="63.378906" xlink:href="#DejaVuSans-48"/>
     </g>
    </g>
   </g>
   <g id="text_41">
    <!-- A7C2 Net with 26 switches and 14 hosts -->
    <g transform="translate(115.015313 35.472)scale(0.12 -0.12)">
     <defs>
      <path d="M 34.1875 63.1875 
L 20.796875 26.90625 
L 47.609375 26.90625 
z
M 28.609375 72.90625 
L 39.796875 72.90625 
L 67.578125 0 
L 57.328125 0 
L 50.6875 18.703125 
L 17.828125 18.703125 
L 11.1875 0 
L 0.78125 0 
z
" id="DejaVuSans-65"/>
      <path d="M 64.40625 67.28125 
L 64.40625 56.890625 
Q 59.421875 61.53125 53.78125 63.8125 
Q 48.140625 66.109375 41.796875 66.109375 
Q 29.296875 66.109375 22.65625 58.46875 
Q 16.015625 50.828125 16.015625 36.375 
Q 16.015625 21.96875 22.65625 14.328125 
Q 29.296875 6.6875 41.796875 6.6875 
Q 48.140625 6.6875 53.78125 8.984375 
Q 59.421875 11.28125 64.40625 15.921875 
L 64.40625 5.609375 
Q 59.234375 2.09375 53.4375 0.328125 
Q 47.65625 -1.421875 41.21875 -1.421875 
Q 24.65625 -1.421875 15.125 8.703125 
Q 5.609375 18.84375 5.609375 36.375 
Q 5.609375 53.953125 15.125 64.078125 
Q 24.65625 74.21875 41.21875 74.21875 
Q 47.75 74.21875 53.53125 72.484375 
Q 59.328125 70.75 64.40625 67.28125 
z
" id="DejaVuSans-67"/>
      <path id="DejaVuSans-32"/>
      <path d="M 9.8125 72.90625 
L 23.09375 72.90625 
L 55.421875 11.921875 
L 55.421875 72.90625 
L 64.984375 72.90625 
L 64.984375 0 
L 51.703125 0 
L 19.390625 60.984375 
L 19.390625 0 
L 9.8125 0 
z
" id="DejaVuSans-78"/>
      <path d="M 56.203125 29.59375 
L 56.203125 25.203125 
L 14.890625 25.203125 
Q 15.484375 15.921875 20.484375 11.0625 
Q 25.484375 6.203125 34.421875 6.203125 
Q 39.59375 6.203125 44.453125 7.46875 
Q 49.3125 8.734375 54.109375 11.28125 
L 54.109375 2.78125 
Q 49.265625 0.734375 44.1875 -0.34375 
Q 39.109375 -1.421875 33.890625 -1.421875 
Q 20.796875 -1.421875 13.15625 6.1875 
Q 5.515625 13.8125 5.515625 26.8125 
Q 5.515625 40.234375 12.765625 48.109375 
Q 20.015625 56 32.328125 56 
Q 43.359375 56 49.78125 48.890625 
Q 56.203125 41.796875 56.203125 29.59375 
z
M 47.21875 32.234375 
Q 47.125 39.59375 43.09375 43.984375 
Q 39.0625 48.390625 32.421875 48.390625 
Q 24.90625 48.390625 20.390625 44.140625 
Q 15.875 39.890625 15.1875 32.171875 
z
" id="DejaVuSans-101"/>
      <path d="M 18.3125 70.21875 
L 18.3125 54.6875 
L 36.8125 54.6875 
L 36.8125 47.703125 
L 18.3125 47.703125 
L 18.3125 18.015625 
Q 18.3125 11.328125 20.140625 9.421875 
Q 21.96875 7.515625 27.59375 7.515625 
L 36.8125 7.515625 
L 36.8125 0 
L 27.59375 0 
Q 17.1875 0 13.234375 3.875 
Q 9.28125 7.765625 9.28125 18.015625 
L 9.28125 47.703125 
L 2.6875 47.703125 
L 2.6875 54.6875 
L 9.28125 54.6875 
L 9.28125 70.21875 
z
" id="DejaVuSans-116"/>
      <path d="M 4.203125 54.6875 
L 13.1875 54.6875 
L 24.421875 12.015625 
L 35.59375 54.6875 
L 46.1875 54.6875 
L 57.421875 12.015625 
L 68.609375 54.6875 
L 77.59375 54.6875 
L 63.28125 0 
L 52.6875 0 
L 40.921875 44.828125 
L 29.109375 0 
L 18.5 0 
z
" id="DejaVuSans-119"/>
      <path d="M 9.421875 54.6875 
L 18.40625 54.6875 
L 18.40625 0 
L 9.421875 0 
z
M 9.421875 75.984375 
L 18.40625 75.984375 
L 18.40625 64.59375 
L 9.421875 64.59375 
z
" id="DejaVuSans-105"/>
      <path d="M 48.78125 52.59375 
L 48.78125 44.1875 
Q 44.96875 46.296875 41.140625 47.34375 
Q 37.3125 48.390625 33.40625 48.390625 
Q 24.65625 48.390625 19.8125 42.84375 
Q 14.984375 37.3125 14.984375 27.296875 
Q 14.984375 17.28125 19.8125 11.734375 
Q 24.65625 6.203125 33.40625 6.203125 
Q 37.3125 6.203125 41.140625 7.25 
Q 44.96875 8.296875 48.78125 10.40625 
L 48.78125 2.09375 
Q 45.015625 0.34375 40.984375 -0.53125 
Q 36.96875 -1.421875 32.421875 -1.421875 
Q 20.0625 -1.421875 12.78125 6.34375 
Q 5.515625 14.109375 5.515625 27.296875 
Q 5.515625 40.671875 12.859375 48.328125 
Q 20.21875 56 33.015625 56 
Q 37.15625 56 41.109375 55.140625 
Q 45.0625 54.296875 48.78125 52.59375 
z
" id="DejaVuSans-99"/>
      <path d="M 34.28125 27.484375 
Q 23.390625 27.484375 19.1875 25 
Q 14.984375 22.515625 14.984375 16.5 
Q 14.984375 11.71875 18.140625 8.90625 
Q 21.296875 6.109375 26.703125 6.109375 
Q 34.1875 6.109375 38.703125 11.40625 
Q 43.21875 16.703125 43.21875 25.484375 
L 43.21875 27.484375 
z
M 52.203125 31.203125 
L 52.203125 0 
L 43.21875 0 
L 43.21875 8.296875 
Q 40.140625 3.328125 35.546875 0.953125 
Q 30.953125 -1.421875 24.3125 -1.421875 
Q 15.921875 -1.421875 10.953125 3.296875 
Q 6 8.015625 6 15.921875 
Q 6 25.140625 12.171875 29.828125 
Q 18.359375 34.515625 30.609375 34.515625 
L 43.21875 34.515625 
L 43.21875 35.40625 
Q 43.21875 41.609375 39.140625 45 
Q 35.0625 48.390625 27.6875 48.390625 
Q 23 48.390625 18.546875 47.265625 
Q 14.109375 46.140625 10.015625 43.890625 
L 10.015625 52.203125 
Q 14.9375 54.109375 19.578125 55.046875 
Q 24.21875 56 28.609375 56 
Q 40.484375 56 46.34375 49.84375 
Q 52.203125 43.703125 52.203125 31.203125 
z
" id="DejaVuSans-97"/>
      <path d="M 54.890625 33.015625 
L 54.890625 0 
L 45.90625 0 
L 45.90625 32.71875 
Q 45.90625 40.484375 42.875 44.328125 
Q 39.84375 48.1875 33.796875 48.1875 
Q 26.515625 48.1875 22.3125 43.546875 
Q 18.109375 38.921875 18.109375 30.90625 
L 18.109375 0 
L 9.078125 0 
L 9.078125 54.6875 
L 18.109375 54.6875 
L 18.109375 46.1875 
Q 21.34375 51.125 25.703125 53.5625 
Q 30.078125 56 35.796875 56 
Q 45.21875 56 50.046875 50.171875 
Q 54.890625 44.34375 54.890625 33.015625 
z
" id="DejaVuSans-110"/>
      <path d="M 45.40625 46.390625 
L 45.40625 75.984375 
L 54.390625 75.984375 
L 54.390625 0 
L 45.40625 0 
L 45.40625 8.203125 
Q 42.578125 3.328125 38.25 0.953125 
Q 33.9375 -1.421875 27.875 -1.421875 
Q 17.96875 -1.421875 11.734375 6.484375 
Q 5.515625 14.40625 5.515625 27.296875 
Q 5.515625 40.1875 11.734375 48.09375 
Q 17.96875 56 27.875 56 
Q 33.9375 56 38.25 53.625 
Q 42.578125 51.265625 45.40625 46.390625 
z
M 14.796875 27.296875 
Q 14.796875 17.390625 18.875 11.75 
Q 22.953125 6.109375 30.078125 6.109375 
Q 37.203125 6.109375 41.296875 11.75 
Q 45.40625 17.390625 45.40625 27.296875 
Q 45.40625 37.203125 41.296875 42.84375 
Q 37.203125 48.484375 30.078125 48.484375 
Q 22.953125 48.484375 18.875 42.84375 
Q 14.796875 37.203125 14.796875 27.296875 
z
" id="DejaVuSans-100"/>
      <path d="M 30.609375 48.390625 
Q 23.390625 48.390625 19.1875 42.75 
Q 14.984375 37.109375 14.984375 27.296875 
Q 14.984375 17.484375 19.15625 11.84375 
Q 23.34375 6.203125 30.609375 6.203125 
Q 37.796875 6.203125 41.984375 11.859375 
Q 46.1875 17.53125 46.1875 27.296875 
Q 46.1875 37.015625 41.984375 42.703125 
Q 37.796875 48.390625 30.609375 48.390625 
z
M 30.609375 56 
Q 42.328125 56 49.015625 48.375 
Q 55.71875 40.765625 55.71875 27.296875 
Q 55.71875 13.875 49.015625 6.21875 
Q 42.328125 -1.421875 30.609375 -1.421875 
Q 18.84375 -1.421875 12.171875 6.21875 
Q 5.515625 13.875 5.515625 27.296875 
Q 5.515625 40.765625 12.171875 48.375 
Q 18.84375 56 30.609375 56 
z
" id="DejaVuSans-111"/>
     </defs>
     <use xlink:href="#DejaVuSans-65"/>
     <use x="68.408203" xlink:href="#DejaVuSans-55"/>
     <use x="132.03125" xlink:href="#DejaVuSans-67"/>
     <use x="201.855469" xlink:href="#DejaVuSans-50"/>
     <use x="265.478516" xlink:href="#DejaVuSans-32"/>
     <use x="297.265625" xlink:href="#DejaVuSans-78"/>
     <use x="372.070312" xlink:href="#DejaVuSans-101"/>
     <use x="433.59375" xlink:href="#DejaVuSans-116"/>
     <use x="472.802734" xlink:href="#DejaVuSans-32"/>
     <use x="504.589844" xlink:href="#DejaVuSans-119"/>
     <use x="586.376953" xlink:href="#DejaVuSans-105"/>
     <use x="614.160156" xlink:href="#DejaVuSans-116"/>
     <use x="653.369141" xlink:href="#DejaVuSans-104"/>
     <use x="716.748047" xlink:href="#DejaVuSans-32"/>
     <use x="748.535156" xlink:href="#DejaVuSans-50"/>
     <use x="812.158203" xlink:href="#DejaVuSans-54"/>
     <use x="875.78125" xlink:href="#DejaVuSans-32"/>
     <use x="907.568359" xlink:href="#DejaVuSans-115"/>
     <use x="959.667969" xlink:href="#DejaVuSans-119"/>
     <use x="1041.455078" xlink:href="#DejaVuSans-105"/>
     <use x="1069.238281" xlink:href="#DejaVuSans-116"/>
     <use x="1108.447266" xlink:href="#DejaVuSans-99"/>
     <use x="1163.427734" xlink:href="#DejaVuSans-104"/>
     <use x="1226.806641" xlink:href="#DejaVuSans-101"/>
     <use x="1288.330078" xlink:href="#DejaVuSans-115"/>
     <use x="1340.429688" xlink:href="#DejaVuSans-32"/>
     <use x="1372.216797" xlink:href="#DejaVuSans-97"/>
     <use x="1433.496094" xlink:href="#DejaVuSans-110"/>
     <use x="1496.875" xlink:href="#DejaVuSans-100"/>
     <use x="1560.351562" xlink:href="#DejaVuSans-32"/>
     <use x="1592.138672" xlink:href="#DejaVuSans-49"/>
     <use x="1655.761719" xlink:href="#DejaVuSans-52"/>
     <use x="1719.384766" xlink:href="#DejaVuSans-32"/>
     <use x="1751.171875" xlink:href="#DejaVuSans-104"/>
     <use x="1814.550781" xlink:href="#DejaVuSans-111"/>
     <use x="1875.732422" xlink:href="#DejaVuSans-115"/>
     <use x="1927.832031" xlink:href="#DejaVuSans-116"/>
     <use x="1967.041016" xlink:href="#DejaVuSans-115"/>
    </g>
   </g>
  </g>
 </g>
 <defs>
  <clipPath id="p5299033b19">
   <rect height="266.112" width="357.12" x="57.6" y="41.472"/>
  </clipPath>
 </defs>
</svg>
